<?xml version="1.0" encoding="utf-8"?>
<!-- Generator: Adobe Illustrator 22.1.0, SVG Export Plug-In . SVG Version: 6.00 Build 0)  -->
<svg version="1.1" id="レイヤー_1" xmlns="http://www.w3.org/2000/svg" xmlns:xlink="http://www.w3.org/1999/xlink" x="0px"
	 y="0px" viewBox="0 0 24.1 29.7" style="enable-background:new 0 0 24.1 29.7;" xml:space="preserve">
<style type="text/css">
	.st0{display:none;}
	.st1{display:inline;fill:#999999;}
	.st2{display:inline;}
</style>
<g class="st0">
	<rect x="-14" y="-15.2" class="st1" width="32" height="32"/>
</g>
<g>
	<g>
		<path d="M14.8,9l5.8,5.8l-5.8,5.8L9,14.8L14.8,9 M14.8,4.8L4.8,14.8l10.1,10.1l8.7-8.7c0.8-0.8,0.8-2,0-2.8L14.8,4.8L14.8,4.8z"/>
	</g>
	<path d="M14.4,6.4L14.7,6c0.4-0.4,0.4-1,0-1.4l-4.3-4.3c-0.4-0.4-1-0.4-1.4,0L8.6,0.6C8.2,1,8.2,1.6,8.6,2L13,6.4
		C13.4,6.7,14,6.7,14.4,6.4z"/>
	<path d="M8.6,29.1l0.3,0.3c0.4,0.4,1,0.4,1.4,0l4.3-4.3c0.4-0.4,0.4-1,0-1.4l-0.3-0.3c-0.4-0.4-1-0.4-1.4,0l-4.3,4.3
		C8.2,28,8.2,28.7,8.6,29.1z"/>
	<path d="M6,14.7l0.3-0.3c0.4-0.4,0.4-1,0-1.4L2,8.6c-0.4-0.4-1-0.4-1.4,0L0.3,8.9c-0.4,0.4-0.4,1,0,1.4l4.3,4.3
		C5,15.1,5.7,15.1,6,14.7z"/>
	<path d="M0.3,20.7L0.6,21c0.4,0.4,1,0.4,1.4,0l4.3-4.3c0.4-0.4,0.4-1,0-1.4L6,15c-0.4-0.4-1-0.4-1.4,0l-4.3,4.3
		C-0.1,19.7-0.1,20.3,0.3,20.7z"/>
</g>
<g class="st0">
	<g class="st2">
		<path d="M26.1,12.1c-0.3,0-0.6-0.1-0.9-0.2c-0.3-0.1-0.6-0.3-0.9-0.6c-0.3-0.3-0.5-0.6-0.6-0.9c-0.1-0.3-0.2-0.7-0.2-1
			c0-0.3,0.1-0.6,0.2-0.9c0.1-0.3,0.3-0.6,0.6-0.8c0.3-0.3,0.5-0.5,0.8-0.6c0.3-0.1,0.5-0.2,0.8-0.2c0.4,0,0.6,0.1,0.9,0.2
			c0.3,0.1,0.5,0.3,0.8,0.6c0.1,0.1,0.1,0.1,0.2,0.2c0.1,0.2,0.1,0.4,0,0.5l-2.1,2.1c0.2,0.2,0.5,0.3,0.7,0.3c0.1,0,0.1,0,0.2,0
			c0.3-0.1,0.6-0.2,0.8-0.5c0.2-0.2,0.3-0.3,0.4-0.5c0.1-0.1,0.1-0.2,0.1-0.3c0.1-0.2,0.2-0.2,0.4-0.2c0,0,0.1,0,0.1,0l0.2,0.1
			c0.1,0,0.2,0.1,0.2,0.2c0,0.1,0.1,0.2,0,0.3c-0.1,0.2-0.1,0.4-0.2,0.6c-0.2,0.3-0.4,0.6-0.6,0.8c-0.3,0.3-0.6,0.5-0.9,0.6
			c-0.3,0.2-0.6,0.2-1,0.3C26.2,12.1,26.1,12.1,26.1,12.1z M25.8,8c-0.2,0-0.4,0.1-0.7,0.3c-0.2,0.2-0.3,0.4-0.3,0.7
			c0,0.3,0,0.5,0.2,0.8l1.5-1.5C26.3,8.2,26,8.1,25.8,8V7.6V8z"/>
		<path d="M31.9,7c-0.1,0-0.2,0-0.3-0.1l-2.4-2.4L28,5.6c-0.1,0.1-0.2,0.1-0.3,0.1l0,0c-0.1,0-0.2,0-0.3-0.1l-0.2-0.2
			c-0.1-0.1-0.1-0.2-0.1-0.3s0-0.2,0.1-0.3l1.9-1.9c0.1-0.1,0.2-0.1,0.3-0.1s0.2,0,0.3,0.1l2.9,2.9c0.1,0.1,0.1,0.2,0.1,0.3
			c0,0.1,0,0.2-0.1,0.3l-0.5,0.5C32.1,7,32,7,31.9,7z M27.6,3c-0.2,0-0.4-0.1-0.6-0.3c-0.2-0.2-0.3-0.4-0.3-0.7
			c0-0.2,0.1-0.5,0.3-0.7c0.2-0.2,0.4-0.3,0.7-0.3c0,0,0,0,0,0c0.3,0,0.5,0.1,0.7,0.3c0.2,0.2,0.3,0.4,0.3,0.7
			c0,0.2-0.1,0.5-0.3,0.7C28.1,2.9,27.9,3,27.6,3C27.6,3,27.6,3,27.6,3z"/>
	</g>
</g>
<g class="st0">
	<g class="st2">
		<path d="M15.8,35.4c-0.1,0-0.2,0-0.2-0.1c-0.1-0.1-0.1-0.2-0.2-0.3l0-0.5c0-0.2,0.1-0.4,0.3-0.4c0.2,0,0.4-0.1,0.6-0.2
			c0.3-0.1,0.5-0.3,0.7-0.5c0.2-0.2,0.4-0.5,0.4-0.6c0-0.2,0-0.4-0.2-0.5c-0.1-0.1-0.1-0.1-0.2-0.1c0,0-0.1,0-0.1,0c0,0-0.1,0-0.1,0
			c-0.1,0-0.2,0.1-0.3,0.1c-0.1,0.1-0.3,0.1-0.4,0.2l-0.8,0.3c-0.2,0.1-0.4,0.1-0.6,0.2c-0.1,0-0.3,0.1-0.5,0.1
			c-0.3,0-0.5-0.1-0.7-0.1c-0.2-0.1-0.4-0.2-0.5-0.4c-0.2-0.2-0.3-0.4-0.4-0.7c-0.1-0.3-0.1-0.5-0.1-0.8c0-0.3,0.1-0.6,0.2-0.8
			c0.1-0.3,0.3-0.5,0.6-0.8c0.3-0.3,0.6-0.5,1-0.7c0.2-0.1,0.5-0.2,0.7-0.2c0,0,0,0,0.1,0c0.1,0,0.2,0,0.2,0.1
			c0.1,0.1,0.1,0.2,0.2,0.3l0,0.4c0,0.2-0.1,0.4-0.3,0.4c-0.1,0-0.3,0.1-0.4,0.1c-0.2,0.1-0.4,0.2-0.6,0.4c-0.2,0.2-0.3,0.4-0.4,0.6
			c0,0.2,0,0.3,0.1,0.5c0.1,0.1,0.2,0.1,0.3,0.1c0.1,0,0.1,0,0.2,0c0.2-0.1,0.5-0.2,0.8-0.3l0.8-0.3c0.4-0.2,0.7-0.3,1.1-0.3
			c0.5,0,0.8,0.2,1.2,0.5c0.2,0.2,0.3,0.4,0.4,0.7c0.1,0.3,0.1,0.5,0.1,0.8c0,0.3-0.1,0.6-0.2,0.9c-0.1,0.3-0.4,0.6-0.6,0.9
			c-0.3,0.3-0.7,0.6-1.1,0.8C16.5,35.3,16.2,35.4,15.8,35.4C15.8,35.4,15.8,35.4,15.8,35.4z"/>
		<path d="M20.4,31.2c-0.2,0-0.4,0-0.6-0.1c-0.2-0.1-0.3-0.2-0.5-0.3c-0.2-0.2-0.3-0.4-0.4-0.6c-0.1-0.2-0.1-0.5,0-0.8
			c0.1-0.3,0.2-0.6,0.5-1c0.2-0.3,0.5-0.7,0.9-1.2c-0.1-0.1-0.3-0.2-0.5-0.2c0,0-0.1,0-0.1,0c-0.2,0-0.4,0.2-0.7,0.4
			c-0.2,0.2-0.3,0.4-0.4,0.6c-0.1,0.1-0.1,0.3-0.2,0.4c-0.1,0.2-0.2,0.3-0.4,0.3c0,0-0.1,0-0.1,0l-0.3-0.1c-0.1,0-0.2-0.1-0.2-0.2
			c0-0.1-0.1-0.2,0-0.3c0.1-0.2,0.2-0.5,0.3-0.7c0.2-0.4,0.4-0.7,0.7-1c0.5-0.5,1-0.7,1.5-0.8h0c0.6,0,1.1,0.3,1.6,0.8l1.7,1.7
			c0.1,0.1,0.1,0.2,0.1,0.3s0,0.2-0.1,0.3L23.1,29c-0.1,0.1-0.2,0.1-0.3,0.1c-0.1,0-0.2,0-0.2-0.1l-0.2-0.1c-0.1,0.3-0.2,0.7-0.3,1
			c-0.1,0.3-0.3,0.6-0.5,0.8c-0.2,0.2-0.4,0.3-0.6,0.4C20.8,31.2,20.6,31.2,20.4,31.2C20.4,31.2,20.4,31.2,20.4,31.2L20.4,31.2z
			 M21,27.8c-0.3,0.3-0.5,0.5-0.6,0.7c-0.1,0.2-0.2,0.4-0.3,0.5c0,0.1-0.1,0.3,0,0.4c0,0.1,0.1,0.2,0.2,0.3c0.1,0.1,0.2,0.1,0.3,0.1
			c0,0,0.1,0,0.1,0c0.1,0,0.3-0.1,0.4-0.3c0.2-0.2,0.3-0.3,0.3-0.5c0.1-0.2,0.1-0.4,0.2-0.6L21,27.8z"/>
		<path d="M24.7,27.2c-0.1,0-0.2,0-0.3-0.1L20,22.7c-0.1-0.1-0.1-0.2-0.1-0.3s0-0.2,0.1-0.3l0.5-0.5c0.1-0.1,0.2-0.1,0.3-0.1l0,0
			c0.1,0,0.2,0,0.3,0.1l2.6,2.6l-0.1-2.5c0-0.1,0-0.2,0.1-0.3L24,21c0.1-0.1,0.2-0.1,0.3-0.1c0,0,0.1,0,0.1,0
			c0.1,0.1,0.2,0.2,0.3,0.4l0.1,1.9l2.7,0.5c0.1,0,0.3,0.1,0.3,0.3c0,0.1,0,0.3-0.1,0.4l-0.4,0.4c-0.1,0.1-0.2,0.1-0.3,0.1
			c0,0-0.1,0-0.1,0l-2.1-0.4l0,1l0.6,0.6c0.1,0.1,0.1,0.2,0.1,0.3s0,0.2-0.1,0.3L25,27.1C24.9,27.2,24.8,27.2,24.7,27.2z"/>
		<path d="M28.9,22.7c-0.2,0-0.4,0-0.5-0.1c-0.2-0.1-0.3-0.2-0.5-0.3c-0.2-0.2-0.3-0.4-0.4-0.6c-0.1-0.2-0.1-0.5,0-0.8
			c0.1-0.3,0.2-0.6,0.5-1c0.2-0.3,0.5-0.7,0.9-1.2c-0.1-0.1-0.3-0.2-0.5-0.2c0,0-0.1,0-0.1,0c-0.2,0-0.4,0.2-0.7,0.4
			c-0.2,0.2-0.3,0.4-0.4,0.6c-0.1,0.1-0.1,0.3-0.2,0.4c-0.1,0.2-0.2,0.3-0.4,0.3c0,0-0.1,0-0.1,0l-0.3-0.1c-0.1,0-0.2-0.1-0.2-0.2
			s-0.1-0.2,0-0.3c0.1-0.2,0.2-0.5,0.3-0.7c0.2-0.4,0.4-0.7,0.7-1c0.5-0.5,1-0.7,1.5-0.8c0,0,0,0,0,0c0.6,0,1.1,0.3,1.6,0.8l1.7,1.7
			c0.2,0.2,0.2,0.4,0,0.6l-0.3,0.3c-0.1,0.1-0.2,0.1-0.3,0.1c-0.1,0-0.2,0-0.2-0.1l-0.2-0.1c-0.1,0.3-0.2,0.7-0.3,1
			c-0.1,0.3-0.3,0.6-0.5,0.8c-0.2,0.2-0.4,0.3-0.6,0.4C29.3,22.7,29.1,22.7,28.9,22.7C28.9,22.7,28.9,22.7,28.9,22.7z M29.5,19.3
			c-0.2,0.3-0.4,0.5-0.6,0.7c-0.1,0.2-0.2,0.4-0.3,0.5c0,0.1-0.1,0.3,0,0.4c0,0.1,0.1,0.2,0.2,0.3c0.1,0.1,0.2,0.1,0.3,0.1
			c0,0,0.1,0,0.1,0c0.1,0,0.3-0.1,0.4-0.3c0.2-0.2,0.3-0.3,0.3-0.5c0.1-0.2,0.1-0.4,0.2-0.6L29.5,19.3
			C29.5,19.3,29.5,19.3,29.5,19.3z"/>
		<path d="M32.9,18.5c-0.1,0-0.1,0-0.2-0.1c-0.1-0.1-0.2-0.2-0.2-0.3l-0.1-0.3c0-0.2,0.1-0.4,0.3-0.4c0.2-0.1,0.4-0.1,0.6-0.2
			c0.3-0.1,0.5-0.3,0.8-0.5c0.2-0.2,0.4-0.4,0.4-0.6c0-0.1,0.1-0.3-0.1-0.4c-0.1-0.1-0.1-0.1-0.2-0.1c-0.1,0-0.2,0-0.3,0.1
			c-0.2,0.1-0.5,0.3-0.9,0.5c-0.2,0.1-0.4,0.2-0.6,0.3c-0.2,0.1-0.4,0.2-0.6,0.2c-0.1,0-0.2,0-0.3,0c-0.1,0-0.2,0-0.3,0
			c-0.2,0-0.3-0.1-0.5-0.3c-0.2-0.2-0.3-0.3-0.3-0.6s-0.1-0.4,0-0.7c0-0.2,0.1-0.5,0.3-0.7c0.1-0.2,0.3-0.5,0.6-0.8
			c0.3-0.3,0.6-0.5,1-0.7c0.2-0.1,0.4-0.1,0.5-0.2c0,0,0.1,0,0.1,0c0.1,0,0.1,0,0.2,0.1c0.1,0.1,0.2,0.2,0.2,0.3l0,0.3
			c0,0.2-0.1,0.4-0.3,0.4c-0.1,0-0.3,0.1-0.4,0.2c-0.2,0.1-0.4,0.3-0.6,0.4c-0.2,0.2-0.4,0.4-0.4,0.5c0,0.1,0,0.2,0.1,0.3
			c0,0,0.1,0.1,0.2,0.1c0.1,0,0.2,0,0.3-0.1c0.1,0,0.2-0.1,0.4-0.2l0.4-0.3c0.2-0.1,0.4-0.2,0.7-0.3c0.2-0.1,0.4-0.2,0.6-0.2
			c0.1,0,0.2,0,0.3,0c0.1,0,0.2,0,0.3,0c0.2,0,0.4,0.1,0.5,0.3c0.2,0.2,0.3,0.3,0.3,0.6c0.1,0.2,0.1,0.4,0,0.7
			c0,0.2-0.1,0.5-0.3,0.8c-0.2,0.3-0.4,0.6-0.7,0.8c-0.3,0.3-0.7,0.6-1.1,0.8c-0.2,0.1-0.5,0.2-0.7,0.3C33,18.5,32.9,18.5,32.9,18.5
			z"/>
		<path d="M37.4,14.5c-0.1,0-0.2,0-0.3-0.1L32.7,10c-0.1-0.1-0.1-0.2-0.1-0.3s0-0.2,0.1-0.3L33.2,9c0.1-0.1,0.2-0.1,0.3-0.1l0,0
			c0.1,0,0.2,0,0.3,0.1l0.9,0.9l0.6,0.7c0-0.1,0-0.3,0-0.4c0-0.1,0.1-0.3,0.1-0.4c0-0.1,0.1-0.3,0.2-0.4c0.1-0.1,0.2-0.3,0.3-0.4
			c0.3-0.3,0.7-0.5,1-0.5c0.1,0,0.1,0,0.2,0c0.4,0.1,0.9,0.3,1.3,0.8l1.9,1.9c0.1,0.1,0.1,0.2,0.1,0.3s0,0.2-0.1,0.3l-0.5,0.5
			c-0.1,0.1-0.2,0.1-0.3,0.1l0,0c-0.1,0-0.2,0-0.3-0.1l-1.7-1.7C37.4,10.2,37.2,10,37,10l-0.1,0c-0.1,0-0.3,0.1-0.5,0.2
			c-0.1,0.1-0.2,0.3-0.3,0.5c0,0.2-0.1,0.4-0.1,0.6l2.1,2.1c0.1,0.1,0.1,0.2,0.1,0.3c0,0.1,0,0.2-0.1,0.3l-0.5,0.5
			C37.6,14.5,37.5,14.5,37.4,14.5z"/>
		<path d="M43.1,8.8c-0.1,0-0.2,0-0.3-0.1l-2.4-2.4l-1.1,1.1c-0.1,0.1-0.2,0.1-0.3,0.1s-0.2,0-0.3-0.1l-0.2-0.2
			c-0.2-0.2-0.2-0.4,0-0.6l1.9-1.9c0.1-0.1,0.2-0.1,0.3-0.1s0.2,0,0.3,0.1l2.9,2.9C43.9,7.7,44,7.8,44,8c0,0.1,0,0.2-0.1,0.3
			l-0.5,0.5C43.3,8.8,43.2,8.8,43.1,8.8z M38.8,4.8c-0.2,0-0.4-0.1-0.6-0.3c-0.2-0.2-0.3-0.4-0.3-0.7c0-0.3,0.1-0.5,0.3-0.7
			c0.2-0.2,0.4-0.3,0.7-0.3h0c0.3,0,0.5,0.1,0.7,0.3c0.2,0.2,0.3,0.4,0.3,0.7s-0.1,0.5-0.3,0.7C39.3,4.7,39.1,4.8,38.8,4.8
			C38.8,4.8,38.8,4.8,38.8,4.8z"/>
		<path d="M46.6,4.8c-0.3,0-0.5-0.1-0.8-0.2c-0.2-0.1-0.5-0.3-0.7-0.6l-1.2-1.2l-0.6,0.6c-0.1,0.1-0.2,0.1-0.3,0.1l0,0
			c-0.1,0-0.2,0-0.3-0.1l-0.2-0.2c-0.2-0.2-0.2-0.4,0-0.6l0.6-0.7l-0.6-0.8c-0.1-0.2-0.1-0.4,0-0.5l0.3-0.3c0.1-0.1,0.2-0.1,0.3-0.1
			l0,0c0.1,0,0.2,0,0.3,0.1l0.7,0.7l1.2-1.2c0.1-0.1,0.2-0.1,0.3-0.1s0.2,0,0.3,0.1L46.1,0c0.1,0.1,0.1,0.2,0.1,0.3s0,0.2-0.1,0.3
			l-1.2,1.2L46.2,3c0.3,0.3,0.5,0.4,0.7,0.4c0.2,0,0.5-0.1,0.7-0.4c0.1-0.1,0.2-0.3,0.3-0.4c0.1-0.1,0.3-0.2,0.4-0.2
			c0.1,0,0.1,0,0.2,0l0.2,0.1c0.2,0.1,0.2,0.4,0.1,0.5c-0.1,0.1-0.1,0.2-0.2,0.3c-0.2,0.2-0.3,0.5-0.6,0.7c-0.3,0.3-0.6,0.5-0.8,0.6
			C47.1,4.8,46.9,4.8,46.6,4.8C46.7,4.8,46.6,4.8,46.6,4.8z"/>
		<path d="M50.1,1.5c-0.2,0-0.4,0-0.6-0.1c-0.2-0.1-0.3-0.2-0.5-0.3c-0.2-0.2-0.3-0.4-0.4-0.6c-0.1-0.2-0.1-0.5,0-0.8
			c0.1-0.3,0.2-0.6,0.5-1c0.2-0.4,0.5-0.8,0.9-1.2c-0.1-0.1-0.3-0.2-0.5-0.2c0,0-0.1,0-0.1,0c-0.2,0-0.4,0.2-0.7,0.4
			c-0.2,0.2-0.3,0.4-0.4,0.6c-0.1,0.1-0.1,0.3-0.2,0.4C48.1-1.1,48-1,47.8-1c0,0-0.1,0-0.1,0l-0.3-0.1c-0.1,0-0.2-0.1-0.2-0.2
			c0-0.1-0.1-0.2,0-0.3c0.1-0.2,0.2-0.5,0.3-0.7c0.2-0.4,0.4-0.7,0.7-1c0.5-0.5,1-0.7,1.5-0.8c0,0,0,0,0,0c0.6,0,1.1,0.3,1.6,0.8
			l1.7,1.7c0.1,0.1,0.1,0.2,0.1,0.3s0,0.2-0.1,0.3l-0.3,0.3c-0.1,0.1-0.2,0.1-0.3,0.1c-0.1,0-0.2,0-0.2-0.1l-0.2-0.1
			c-0.1,0.3-0.2,0.7-0.3,1c-0.1,0.3-0.3,0.6-0.5,0.8c-0.2,0.2-0.4,0.3-0.6,0.4C50.5,1.5,50.3,1.5,50.1,1.5
			C50.1,1.5,50.1,1.5,50.1,1.5L50.1,1.5z M50.7-1.9c-0.3,0.3-0.5,0.5-0.6,0.7C50-1,49.9-0.8,49.9-0.7c-0.1,0.2-0.1,0.3,0,0.4
			c0,0.1,0.1,0.2,0.2,0.3c0.1,0.1,0.2,0.1,0.3,0.1c0,0,0.1,0,0.1,0c0.1,0,0.3-0.1,0.4-0.3c0.2-0.2,0.3-0.3,0.3-0.5
			c0.1-0.2,0.1-0.4,0.2-0.6L50.7-1.9z"/>
	</g>
</g>
</svg>
